<?xml version="1.0" encoding="UTF-8"?>
<svg xmlns="http://www.w3.org/2000/svg" xmlns:xlink="http://www.w3.org/1999/xlink" width="122pt" height="61pt" viewBox="0 0 122 61" version="1.1">
<defs>
<filter id="alpha" filterUnits="objectBoundingBox" x="0%" y="0%" width="100%" height="100%">
  <feColorMatrix type="matrix" in="SourceGraphic" values="0 0 0 0 1 0 0 0 0 1 0 0 0 0 1 0 0 0 1 0"/>
</filter>
<mask id="mask0">
  <g filter="url(#alpha)">
<rect x="0" y="0" width="122" height="61" style="fill:rgb(0%,0%,0%);fill-opacity:0.980392;stroke:none;"/>
  </g>
</mask>
<clipPath id="clip1">
  <rect width="122" height="61"/>
</clipPath>
<g id="surface6" clip-path="url(#clip1)">
<path style=" stroke:none;fill-rule:nonzero;fill:rgb(29.411765%,29.411765%,30.196078%);fill-opacity:1;" d="M 36.042969 56.863281 L 34.601562 58.289062 L 35.484375 59.160156 L 38.371094 59.160156 Z M 36.042969 56.863281 "/>
</g>
<mask id="mask1">
  <g filter="url(#alpha)">
<rect x="0" y="0" width="122" height="61" style="fill:rgb(0%,0%,0%);fill-opacity:0.980392;stroke:none;"/>
  </g>
</mask>
<linearGradient id="linear0" gradientUnits="userSpaceOnUse" x1="178.38731" y1="927.13824" x2="296.75479" y2="856.104" gradientTransform="matrix(0.202658,0,0,0.202658,0,-152.269412)">
<stop offset="0" style="stop-color:rgb(83.921569%,26.27451%,14.509804%);stop-opacity:1;"/>
<stop offset="1" style="stop-color:rgb(94.509804%,63.137255%,28.627451%);stop-opacity:1;"/>
</linearGradient>
<clipPath id="clip2">
  <rect width="122" height="61"/>
</clipPath>
<g id="surface9" clip-path="url(#clip2)">
<path style=" stroke:none;fill-rule:nonzero;fill:url(#linear0);" d="M 61.859375 13.929688 C 61.859375 11.65625 60.035156 9.808594 57.785156 9.808594 C 55.535156 9.808594 53.714844 11.65625 53.714844 13.929688 C 53.714844 16.207031 55.535156 18.050781 57.785156 18.050781 C 60.035156 18.050781 61.859375 16.207031 61.859375 13.929688 Z M 61.859375 13.929688 "/>
</g>
<linearGradient id="linear1" gradientUnits="userSpaceOnUse" x1="178.38731" y1="927.13824" x2="296.75479" y2="856.104" gradientTransform="matrix(0.202658,0,0,0.202658,0,-152.269412)">
<stop offset="0" style="stop-color:rgb(83.921569%,26.27451%,14.509804%);stop-opacity:1;"/>
<stop offset="1" style="stop-color:rgb(94.509804%,63.137255%,28.627451%);stop-opacity:1;"/>
</linearGradient>
<mask id="mask2">
  <g filter="url(#alpha)">
<rect x="0" y="0" width="122" height="61" style="fill:rgb(0%,0%,0%);fill-opacity:0.980392;stroke:none;"/>
  </g>
</mask>
<clipPath id="clip3">
  <rect width="122" height="61"/>
</clipPath>
<g id="surface12" clip-path="url(#clip3)">
<path style=" stroke:none;fill-rule:nonzero;fill:rgb(48.235294%,27.058824%,56.862745%);fill-opacity:1;" d="M 75.761719 45.085938 C 75.761719 47.363281 77.585938 49.207031 79.832031 49.207031 C 82.082031 49.207031 83.90625 47.363281 83.90625 45.085938 C 83.90625 42.8125 82.082031 40.96875 79.832031 40.96875 C 77.585938 40.96875 75.761719 42.8125 75.761719 45.085938 Z M 75.761719 45.085938 "/>
</g>
<linearGradient id="linear2" gradientUnits="userSpaceOnUse" x1="392.72455" y1="934.47906" x2="480.14023" y2="876.3194" gradientTransform="matrix(0.202658,0,0,0.202658,0,-152.269412)">
<stop offset="0" style="stop-color:rgb(49.411765%,27.45098%,56.862745%);stop-opacity:1;"/>
<stop offset="1" style="stop-color:rgb(21.960784%,32.54902%,61.568627%);stop-opacity:1;"/>
</linearGradient>
</defs>
<g id="surface1">
<path style="fill:none;stroke-width:10;stroke-linecap:butt;stroke-linejoin:miter;stroke:rgb(29.411765%,29.411765%,30.196078%);stroke-opacity:1;stroke-miterlimit:4;" d="M 199.439485 975.685822 L 199.439485 1043.245057 " transform="matrix(0.202658,0,0,0.202658,0,-152.269412)"/>
<path style="fill:none;stroke-width:10.178786;stroke-linecap:butt;stroke-linejoin:miter;stroke:rgb(29.411765%,29.411765%,30.196078%);stroke-opacity:1;stroke-miterlimit:4;" d="M 215.534196 1016.375564 L 282.630827 1016.375564 " transform="matrix(0.202658,0,0,0.202658,0,-152.269412)"/>
<path style="fill:none;stroke-width:8.851775;stroke-linecap:butt;stroke-linejoin:miter;stroke:rgb(29.411765%,29.411765%,30.196078%);stroke-opacity:1;stroke-miterlimit:4;" d="M 300.113345 1008.434221 L 350.86469 1008.434221 " transform="matrix(0.202658,0,0,0.202658,0,-152.269412)"/>
<path style="fill:none;stroke-width:10;stroke-linecap:butt;stroke-linejoin:miter;stroke:rgb(29.411765%,29.411765%,30.196078%);stroke-opacity:1;stroke-miterlimit:4;" d="M 122.20415 1010.901435 L 170.372631 1011.03636 C 175.519083 1010.99781 181.147413 1005.832083 181.166688 1000.415779 L 181.417264 992.628637 C 181.089588 987.42436 175.287782 980.755174 170.33408 980.986476 L 122.435451 980.292572 " transform="matrix(0.202658,0,0,0.202658,0,-152.269412)"/>
<path style="fill:none;stroke-width:10;stroke-linecap:butt;stroke-linejoin:miter;stroke:rgb(29.411765%,29.411765%,30.196078%);stroke-opacity:1;stroke-miterlimit:4;" d="M 280.529841 1043.360707 L 280.067239 989.621721 C 280.028689 986.075103 274.149782 980.080546 269.369557 980.080546 L 227.330558 980.099821 C 223.070761 980.099821 218.117059 984.725845 218.117059 989.004918 L 218.136335 1043.611283 " transform="matrix(0.202658,0,0,0.202658,0,-152.269412)"/>
<path style="fill:none;stroke-width:10;stroke-linecap:butt;stroke-linejoin:miter;stroke:rgb(29.411765%,29.411765%,30.196078%);stroke-opacity:1;stroke-miterlimit:4;" d="M 100.481109 975.589447 L 100.481109 1043.148681 " transform="matrix(0.202658,0,0,0.202658,0,-152.269412)"/>
<path style="fill:none;stroke-width:10;stroke-linecap:butt;stroke-linejoin:miter;stroke:rgb(29.411765%,29.411765%,30.196078%);stroke-opacity:1;stroke-miterlimit:4;" d="M 118.46478 975.338871 L 118.46478 1042.91738 " transform="matrix(0.202658,0,0,0.202658,0,-152.269412)"/>
<path style="fill:none;stroke-width:10;stroke-linecap:butt;stroke-linejoin:bevel;stroke:rgb(29.411765%,29.411765%,30.196078%);stroke-opacity:1;stroke-miterlimit:4;" d="M 178.738025 1039.833363 L 149.883197 1010.361732 " transform="matrix(0.202658,0,0,0.202658,0,-152.269412)"/>
<path style="fill:none;stroke-width:10;stroke-linecap:butt;stroke-linejoin:miter;stroke:rgb(29.411765%,29.411765%,30.196078%);stroke-opacity:1;stroke-miterlimit:4;" d="M 365.687244 980.138371 L 307.476434 979.829969 C 303.197362 979.810694 298.24366 984.455994 298.262935 988.735067 L 298.282211 1043.341432 " transform="matrix(0.202658,0,0,0.202658,0,-152.269412)"/>
<use xlink:href="#surface6" mask="url(#mask0)"/>
<use xlink:href="#surface9" mask="url(#mask1)"/>
<path style=" stroke:none;fill-rule:evenodd;fill:url(#linear1);" d="M 58.433594 0.292969 C 58.433594 0.292969 47.058594 7.511719 41.957031 13.363281 C 36.851562 19.210938 31.757812 27.945312 36.558594 35.996094 C 41.355469 44.046875 51.5 42.949219 59.191406 41.585938 C 66.886719 40.222656 79.460938 33.535156 79.460938 33.535156 C 79.460938 33.535156 68.832031 34.691406 62.792969 34.765625 C 56.75 34.839844 50.480469 33 49.058594 28.230469 C 47.636719 23.460938 48.015625 18.96875 50.242188 13.691406 C 52.46875 8.417969 58.433594 0.292969 58.433594 0.292969 Z M 58.433594 0.292969 "/>
<use xlink:href="#surface12" mask="url(#mask2)"/>
<path style=" stroke:none;fill-rule:evenodd;fill:url(#linear2);" d="M 79.585938 60.199219 C 79.585938 60.199219 88.015625 54.183594 93.117188 48.332031 C 98.222656 42.484375 102.914062 34.953125 98.113281 26.902344 C 93.316406 18.851562 83.171875 20.21875 75.480469 22.386719 C 67.789062 24.554688 57.488281 30.171875 57.488281 30.171875 C 57.488281 30.171875 66.777344 28.34375 72.816406 28.269531 C 78.859375 28.195312 85.53125 29.898438 86.953125 34.671875 C 88.375 39.441406 87.59375 44.203125 85.367188 49.476562 C 83.140625 54.75 79.585938 60.199219 79.585938 60.199219 Z M 79.585938 60.199219 "/>
</g>
</svg>
